<svg id="Calque_1" data-name="Calque 1" xmlns="http://www.w3.org/2000/svg" viewBox="0 0 90.18 93.78"><defs><style>.cls-1{fill:#231f20;}</style></defs><title>Logo_AlexiaSeve</title><path class="cls-1" d="M44.1,65.44C41.4,73.19,28.72,79,23.22,70.7c-3.38-5.09-2.83-13.29-.53-18.68C25.26,46,29.11,40.34,32.82,35c5.27-7.63,9.61-16,15.43-23.23l-2-.25c8.78,14.94,21.32,30.1,23.9,47.76.88,6-.54,13.33-7.41,14.76S49.9,70.37,46.39,65.14c-.89-1.33-3.06-.08-2.16,1.26,3.62,5.39,9.12,10.08,15.92,10.29a12,12,0,0,0,12-8.27c2.8-8.34-1.25-18.26-4.71-25.77-5.26-11.4-12.63-21.65-19-32.43a1.25,1.25,0,0,0-2-.26c-7.06,8.76-12.81,18.92-19,28.35-4.55,7-9.08,14.33-9.06,22.93C18.49,68,21,75.42,28.4,76.91,36,78.44,44,73.23,46.52,66.1c.53-1.52-1.89-2.18-2.42-.66Z" transform="translate(-0.44 -0.68)"/><path class="cls-1" d="M48.06,11.87C49.41,3.8,60.66-.2,66.22,6.63c6.08,7.47-1,17.15-9.06,18.63-1.58.29-.91,2.7.67,2.41,10-1.84,17.88-14.54,9.9-23.17-7-7.56-20.43-3.13-22.08,6.7-.27,1.58,2.14,2.25,2.41.67Z" transform="translate(-0.44 -0.68)"/><path class="cls-1" d="M47.76,12c2.32-3.9-1.07-7.16-4.53-8.67C38.84,1.41,33,1.08,28.88,3.87c-9.15,6.23-3.84,25.51,8,23.63,1.58-.25.91-2.66-.67-2.41C26.9,26.57,23.49,10,30.71,5.67c2.91-1.74,6.82-1.58,10-.63,2.27.69,6.73,2.66,4.93,5.69A1.25,1.25,0,0,0,47.76,12Z" transform="translate(-0.44 -0.68)"/><path class="cls-1" d="M68.47,20.63c7.23-2.39,15.15,4.85,13.17,12.53-1.52,5.93-10,9.1-15.4,7.55a1.25,1.25,0,0,0-.67,2.41c7,2,17.83-2.52,18.7-10.56,1-9.16-7.56-17.28-16.47-14.34-1.52.51-.86,2.92.67,2.41Z" transform="translate(-0.44 -0.68)"/><path class="cls-1" d="M27.57,19.15c-2.37-3-7.59-3.1-11-1.89-4,1.46-6,5.59-6.43,9.65-.78,8,7.52,19,16.33,16.19,1.52-.49.87-2.9-.67-2.41-6.23,2-12.55-5.58-13.18-11.23-.39-3.5.85-8,4.28-9.64,2.52-1.2,7.06-1.21,8.86,1.09,1,1.27,2.75-.51,1.77-1.76Z" transform="translate(-0.44 -0.68)"/><path class="cls-1" d="M16.64,38.13C6.55,35.29-.46,43.83.54,53.59S11.8,65.77,19.9,63c1.51-.52.86-2.93-.67-2.41C13.15,62.67,4.65,62,3.16,54.38,1.56,46.17,7.24,38.08,16,40.54a1.25,1.25,0,0,0,.67-2.41Z" transform="translate(-0.44 -0.68)"/><path class="cls-1" d="M8.75,61.17C-.61,62,.91,75.77,6.61,80.08s16.69,2.22,18.45-5.4c.36-1.56-2-2.23-2.41-.66-1.18,5.1-7.57,6.68-12.08,5.28A8.93,8.93,0,0,1,4.8,72.86c-.84-3-.3-8.81,4-9.19,1.59-.14,1.61-2.64,0-2.5Z" transform="translate(-0.44 -0.68)"/><path class="cls-1" d="M13.73,81.74c-1.28,8.59,7.55,13.46,15.19,12.64a11.13,11.13,0,0,0,6.72-19.2c-1.17-1.11-2.94.66-1.77,1.77,6.25,6,1.42,15-6.54,15C22,92,15.2,88.7,16.14,82.41c.23-1.58-2.18-2.26-2.41-.67Z" transform="translate(-0.44 -0.68)"/><path class="cls-1" d="M79.13,40.59c3.08,0,5.59.08,7,3.34a10.11,10.11,0,0,1-.87,9.14c-2.45,3.61-9,6.33-12.78,3.23-1.23-1-3,.74-1.76,1.77,5.18,4.3,14,1.22,17.06-4.37,1.91-3.5,2.21-8.38.17-11.9s-5.2-3.72-8.8-3.71a1.25,1.25,0,0,0,0,2.5Z" transform="translate(-0.44 -0.68)"/><path class="cls-1" d="M82.55,58.78c6.07.38,6.67,9.81,4.32,14-1.68,3-5.66,3.79-8.81,4-4.44.29-5.81-2-8.52-4.82-1.13-1.15-2.9.62-1.77,1.77,1.58,1.61,2.75,3.76,4.83,4.79s4.36.89,6.46.67c4.12-.42,8.42-1.83,10.29-5.8,2.82-6,1.15-16.57-6.8-17.07-1.6-.1-1.6,2.4,0,2.5Z" transform="translate(-0.44 -0.68)"/><path class="cls-1" d="M56.69,74.47c-3.49,2.25-2.62,6.85-1.13,10.12A12.48,12.48,0,0,0,66.67,92.3c7.43.24,18.35-6.2,12.67-14.46-.9-1.32-3.07-.07-2.16,1.26,4,5.86-3.21,9.79-8.29,10.55A10.27,10.27,0,0,1,60,86.91c-1.8-1.88-5.28-8.18-2-10.28,1.35-.87.1-3-1.26-2.16Z" transform="translate(-0.44 -0.68)"/><path class="cls-1" d="M36.7,87.59c3.5,3.5,6.94,5.71,12.07,4.72,3.89-.74,8-2.79,9.24-6.82.47-1.54-1.94-2.2-2.41-.66-1,3.17-4.75,4.64-7.74,5.1-4,.62-6.69-1.4-9.39-4.11a1.25,1.25,0,0,0-1.77,1.77Z" transform="translate(-0.44 -0.68)"/><path class="cls-1" d="M46.33,45.21c-4-3.09-6.81,3.77-5,6.84,2.57,4.36,8.83,2.12,9.32-2.51a5.13,5.13,0,0,0-7.46-5.28,4.24,4.24,0,0,0-2.42,3.87A4.1,4.1,0,0,0,44.2,52a4.65,4.65,0,0,0,4.59-2.83c1-2.55-1.22-4.26-3.37-5a1.27,1.27,0,0,0-1.41.58,8.48,8.48,0,0,0-1.24,4.56,1.27,1.27,0,0,0,1.58,1.21,5.13,5.13,0,0,0,3.12-1.2,3.89,3.89,0,0,0,.66-3.23A1.28,1.28,0,0,0,46.24,45c-1,.48-1,1.2-1.68,2-1,1.23.75,3,1.77,1.76.38-.46.66-1.35,1.18-1.59l-1.88-1.08c0,.35.21,1.31,0,1.53-.37.41-1.48.41-2,.48l1.59,1.21a6,6,0,0,1,.9-3.3l-1.41.57c1.06.39,2.42,1.14,1.33,2.28a1.63,1.63,0,0,1-2.32.33c-1.73-1.75,1-3.43,2.65-3,2.87.81,2,5.53-.87,5.74a2.13,2.13,0,0,1-2.24-2.43c0-.44.5-3.13,1.25-2.55,1.26,1,3-.78,1.77-1.77Z" transform="translate(-0.44 -0.68)"/><path class="cls-1" d="M59,11.41a2,2,0,0,0-3.21.62,3.61,3.61,0,0,0-.16,3.36c1.56,2.59,5.3,1.31,5.57-1.5a3.05,3.05,0,0,0-4.47-3,2.62,2.62,0,0,0-1.45,2.37,2.56,2.56,0,0,0,2.26,2.48,2.82,2.82,0,0,0,2.77-1.8c.56-1.56-.68-2.67-2-3.16a1.26,1.26,0,0,0-1.41.58,4.68,4.68,0,0,0-.67,2.45A1.27,1.27,0,0,0,57.78,15a2.87,2.87,0,0,0,1.74-.73,2.38,2.38,0,0,0,.5-2,1.27,1.27,0,0,0-1.88-1.08,1.72,1.72,0,0,0-.74.62c-.06.1-.47.76-.18.4a1.3,1.3,0,0,0,0,1.77A1.27,1.27,0,0,0,59,14a2.92,2.92,0,0,0,.38-.54l.13-.29-.1.2L57.52,12.3a2.45,2.45,0,0,0,0,.61c-.1-.16.3-.46.31-.49s0,0-.12.05-.42.08-.63.11l1.58,1.21A2,2,0,0,1,59,12.6l-1.41.57s.44.21.3.13c.13.07.07.12.05,0s0-.2,0-.11c.06-.16.06-.17,0-.05.1-.12.11-.12,0,0s-.1.1,0,0l-.18.11c-.21.08.17,0-.08,0s0,0,.08,0c-.14,0-.13,0,0,0s.12.1,0,0c.08.1.07.09,0,0s-.08-.14,0,0c0-.14,0-.13,0,0a.6.6,0,0,1,0-.19c-.07.49.07-.26,0,.2a.83.83,0,0,1,.09-.16c-.1.13-.11.15,0,.05s.09-.09,0,0l.17-.1c.18-.06-.17,0,.16-.05s-.18,0,.16,0-.19-.1.12,0-.06-.09.12.06c-.3-.25.24.25,0,0a.81.81,0,0,1,.19.69.69.69,0,0,1-.18.35c-.09.11-.06.11-.27.2.24-.1-.39.09-.09,0-.16,0-.17,0,0,0-.14,0-.17,0-.07,0-.15-.08-.07,0-.18-.1s0,0-.1-.16c.1.26,0-.11,0-.22s0-.17,0-.05a2.21,2.21,0,0,1,.05-.25c0-.05.18-.49.1-.3.11-.28.17-.11,0,0a.65.65,0,0,1-.67-.07,1.3,1.3,0,0,0,1.77,0,1.26,1.26,0,0,0,0-1.77Z" transform="translate(-0.44 -0.68)"/><path class="cls-1" d="M72.34,28.3a2,2,0,0,0-3.22.62A3.61,3.61,0,0,0,69,32.28c1.55,2.59,5.3,1.31,5.56-1.5a3,3,0,0,0-4.46-3,2.64,2.64,0,0,0-1.46,2.36,2.57,2.57,0,0,0,2.27,2.49,2.83,2.83,0,0,0,2.77-1.8c.56-1.57-.69-2.68-2-3.16a1.26,1.26,0,0,0-1.41.57,4.59,4.59,0,0,0-.67,2.45,1.27,1.27,0,0,0,1.58,1.21,2.9,2.9,0,0,0,1.74-.73,2.33,2.33,0,0,0,.5-2,1.26,1.26,0,0,0-1.88-1.07,1.65,1.65,0,0,0-.74.62c-.06.1-.47.76-.17.4a1.27,1.27,0,0,0,0,1.76,1.26,1.26,0,0,0,1.77,0,3.39,3.39,0,0,0,.38-.53l.13-.3a1.28,1.28,0,0,1-.11.2l-1.88-1.08a2.93,2.93,0,0,0,0,.61c-.1-.16.29-.46.31-.48s0,0-.13,0-.41.08-.62.12L72,30.67a2.05,2.05,0,0,1,.32-1.19L71,30.06s.44.21.31.12c.12.08.07.13,0,0s0-.21,0-.12c.07-.15.07-.16,0,0,.1-.12.1-.13,0,0s-.1.09,0,0l-.17.11c-.22.08.16,0-.08,0s0,0,.07,0c-.13,0-.12,0,0,0s.12.09,0,0c.08.1.08.09,0,0s-.07-.14,0,0c0-.15,0-.14,0,0v-.19c-.06.5.08-.25,0,.2a1.3,1.3,0,0,1,.1-.15c-.11.13-.11.14,0,0s.09-.08,0,0l.16-.1c.18-.06-.17,0,.17-.05.19,0-.19-.05.16,0s-.19-.09.11,0-.06-.09.12.05c-.29-.24.24.26,0,0a.76.76,0,0,1,.18.68.79.79,0,0,1-.17.36.5.5,0,0,1-.27.2c.23-.1-.4.09-.1,0-.15,0-.17,0,0,0-.14-.05-.16,0-.06,0-.15-.08-.08,0-.19-.11s0,0-.09-.16c.09.27,0-.1,0-.22s0-.16,0,0l.06-.26s.17-.49.09-.29c.12-.28.17-.11,0,0a.65.65,0,0,1-.66-.07,1.3,1.3,0,0,0,1.77,0,1.27,1.27,0,0,0,0-1.77Z" transform="translate(-0.44 -0.68)"/><path class="cls-1" d="M79.75,46.8a2,2,0,0,0-3.22.62,3.61,3.61,0,0,0-.15,3.36c1.56,2.59,5.3,1.3,5.56-1.5a3,3,0,0,0-4.46-3A2.64,2.64,0,0,0,76,48.62a2.56,2.56,0,0,0,2.27,2.48,2.82,2.82,0,0,0,2.77-1.8c.56-1.56-.69-2.67-2-3.15a1.25,1.25,0,0,0-1.41.57A4.59,4.59,0,0,0,77,49.17a1.26,1.26,0,0,0,1.58,1.2,2.83,2.83,0,0,0,1.74-.72,2.33,2.33,0,0,0,.5-2,1.27,1.27,0,0,0-1.88-1.08,1.74,1.74,0,0,0-.74.63c-.06.09-.47.76-.17.39a1.29,1.29,0,0,0,0,1.77,1.26,1.26,0,0,0,1.77,0,3.39,3.39,0,0,0,.38-.53l.13-.3a1.28,1.28,0,0,1-.11.2l-1.88-1.08a3,3,0,0,0,0,.61c-.1-.16.29-.46.31-.48s0,0-.13,0a6.17,6.17,0,0,1-.62.11l1.58,1.21A2.05,2.05,0,0,1,79.77,48l-1.41.58s.44.2.31.12c.12.08.07.13,0,0s0-.21,0-.12c.07-.15.07-.17,0,0,.1-.12.1-.13,0,0s-.1.09,0,0l-.17.11c-.22.08.16,0-.08,0s0,0,.07,0h0c.11.1.12.1,0,0,.08.1.08.08,0,0s-.07-.14,0,0c0-.15,0-.14,0,0a1.28,1.28,0,0,1,0-.19c-.07.5.07-.26,0,.2a.78.78,0,0,1,.1-.15c-.11.13-.11.14,0,0s.09-.09,0,0l.16-.1c.18-.06-.17,0,.17,0,.19,0-.19,0,.16,0s-.19-.09.11,0-.06-.1.12,0c-.29-.24.24.25,0,0a.82.82,0,0,1,0,1.05.56.56,0,0,1-.27.2c.23-.11-.4.08-.1,0-.15,0-.16,0,0,0q-.21-.07-.06,0c-.15-.08-.08,0-.19-.1s0,0-.09-.16c.09.27,0-.1,0-.22s0-.16,0,0L78.6,49s.17-.49.09-.29c.12-.29.17-.12,0,0a.63.63,0,0,1-.66-.06,1.3,1.3,0,0,0,1.77,0,1.27,1.27,0,0,0,0-1.77Z" transform="translate(-0.44 -0.68)"/><path class="cls-1" d="M80.34,65.9a2,2,0,0,0-3.22.62A3.61,3.61,0,0,0,77,69.88c1.55,2.59,5.3,1.31,5.56-1.5a3,3,0,0,0-4.46-3,2.65,2.65,0,0,0-1.46,2.37,2.57,2.57,0,0,0,2.27,2.48,2.83,2.83,0,0,0,2.77-1.8c.56-1.56-.69-2.68-2-3.16a1.26,1.26,0,0,0-1.41.57,4.61,4.61,0,0,0-.67,2.45,1.27,1.27,0,0,0,1.58,1.21,2.85,2.85,0,0,0,1.74-.73,2.31,2.31,0,0,0,.5-2,1.27,1.27,0,0,0-1.88-1.08,1.65,1.65,0,0,0-.74.62c-.06.1-.47.76-.17.4a1.29,1.29,0,0,0,0,1.77,1.27,1.27,0,0,0,1.77,0,4,4,0,0,0,.38-.54l.13-.29-.11.2-1.88-1.08a2.88,2.88,0,0,0,0,.6c-.1-.16.29-.45.31-.48s0,0-.13,0a6.17,6.17,0,0,1-.62.11L80,68.27a2,2,0,0,1,.32-1.18L79,67.66s.44.21.31.13c.12.07.07.12,0,0s0-.21,0-.11c.07-.16.07-.17,0,0,.1-.12.1-.12,0,0s-.1.1,0,0l-.17.11c-.22.08.16,0-.08,0s0,0,.07,0c-.13,0-.12,0,0,0s.12.09,0,0c.08.1.08.09,0,0s-.07-.14,0,0c0-.14,0-.13,0,0v-.19c-.06.49.08-.26,0,.19a1.3,1.3,0,0,1,.1-.15c-.11.13-.11.15,0,0s.09-.08,0,0l.16-.1c.18-.06-.17,0,.17-.05.19,0-.19,0,.16,0s-.19-.1.11,0-.06-.09.12.06c-.29-.25.24.25,0,0a.77.77,0,0,1,.18.68.75.75,0,0,1-.17.36.5.5,0,0,1-.27.2c.23-.1-.4.09-.1,0-.15,0-.17,0,0,0-.14,0-.16,0-.06,0-.15-.08-.08,0-.19-.1s0,0-.09-.17c.09.27,0-.1,0-.22s0-.16,0,0l.06-.25s.17-.49.09-.3c.12-.28.17-.11,0,0a.63.63,0,0,1-.66-.07,1.3,1.3,0,0,0,1.77,0,1.27,1.27,0,0,0,0-1.77Z" transform="translate(-0.44 -0.68)"/><path class="cls-1" d="M67.83,80.46a2,2,0,0,0-3.22.62,3.61,3.61,0,0,0-.15,3.36C66,87,69.76,85.75,70,82.94a3,3,0,0,0-4.46-3,2.65,2.65,0,0,0-1.46,2.37,2.57,2.57,0,0,0,2.27,2.48A2.83,2.83,0,0,0,69.14,83c.56-1.57-.69-2.68-2-3.16a1.26,1.26,0,0,0-1.41.57A4.59,4.59,0,0,0,65,82.83,1.27,1.27,0,0,0,66.61,84a2.9,2.9,0,0,0,1.74-.73,2.31,2.31,0,0,0,.5-2A1.27,1.27,0,0,0,67,80.27a1.65,1.65,0,0,0-.74.62c-.06.1-.47.76-.17.4a1.25,1.25,0,1,0,1.77,1.77,3.29,3.29,0,0,0,.38-.54l.13-.3a1.28,1.28,0,0,1-.11.2l-1.88-1.07a2.88,2.88,0,0,0,0,.6c-.1-.16.29-.45.31-.48s0,0-.13,0a6.18,6.18,0,0,1-.62.12l1.58,1.2a2,2,0,0,1,.33-1.18l-1.42.57s.44.21.31.13c.12.07.07.12,0,0s0-.21,0-.11c.07-.16.07-.17,0,0,.1-.12.1-.12,0,0s-.1.09,0,0l-.17.11c-.22.08.16,0-.08,0s0,0,.07,0c-.13,0-.12,0,0,0s.12.09,0,0c.08.1.08.09,0,0s-.07-.14,0,0c0-.15,0-.13,0,0a1.15,1.15,0,0,1,0-.19c-.07.49.07-.26,0,.19l.1-.15c-.11.13-.11.14,0,0s.09-.08,0,0l.16-.1c.18-.06-.17,0,.17,0,.19,0-.19,0,.16,0s-.19-.09.11,0-.06-.09.12.06c-.29-.25.24.25,0,0a.77.77,0,0,1,.18.68.75.75,0,0,1-.17.36.5.5,0,0,1-.27.2c.23-.1-.4.09-.1,0-.15,0-.16,0,0,0-.14,0-.16,0-.06,0-.15-.08-.07,0-.19-.11s0,0-.09-.16c.09.27,0-.1,0-.22s0-.16,0,0l.06-.25s.17-.5.09-.3c.12-.28.17-.11,0,0a.65.65,0,0,1-.67-.07,1.3,1.3,0,0,0,1.77,0,1.27,1.27,0,0,0,0-1.77Z" transform="translate(-0.44 -0.68)"/><path class="cls-1" d="M47.61,78.76a2,2,0,0,0-3.21.62,3.61,3.61,0,0,0-.16,3.36c1.56,2.59,5.3,1.3,5.57-1.5a3.05,3.05,0,0,0-4.47-3,2.66,2.66,0,0,0-1.45,2.37,2.56,2.56,0,0,0,2.26,2.48,2.8,2.8,0,0,0,2.77-1.8c.56-1.56-.68-2.67-2-3.15a1.25,1.25,0,0,0-1.41.57,4.58,4.58,0,0,0-.66,2.45,1.26,1.26,0,0,0,1.58,1.2,2.86,2.86,0,0,0,1.74-.72,2.36,2.36,0,0,0,.5-2,1.28,1.28,0,0,0-1.88-1.08,1.74,1.74,0,0,0-.74.63c-.06.09-.47.76-.18.39a1.3,1.3,0,0,0,0,1.77,1.26,1.26,0,0,0,1.77,0,3.22,3.22,0,0,0,.38-.53l.13-.3a1.24,1.24,0,0,1-.1.2l-1.88-1.08a2.43,2.43,0,0,0,0,.61c-.09-.16.3-.46.31-.48s0,0-.12,0-.42.08-.63.11l1.59,1.21a2,2,0,0,1,.32-1.19l-1.41.58s.44.2.3.12c.13.08.08.13,0,0s0-.21,0-.12c.06-.15.06-.17,0,0,.1-.12.11-.13,0,0s-.1.09,0,0l-.18.11c-.21.08.17,0-.08,0s0,0,.08,0c-.13,0-.13,0,0,0s.12.1,0,0c.08.1.07.08,0,0s-.08-.14,0,0c0-.15,0-.14,0,0a.6.6,0,0,1,0-.19c-.07.5.08-.26,0,.2a.75.75,0,0,1,.09-.15c-.1.13-.11.14,0,0s.09-.09,0,0l.17-.1c.18-.07-.17,0,.16-.06s-.18,0,.16,0-.19-.09.12,0-.06-.1.12.05c-.3-.24.24.25,0,0a.79.79,0,0,1,.19.69.72.72,0,0,1-.18.36.47.47,0,0,1-.27.2c.24-.11-.39.08-.09,0-.16,0-.17,0,0,0-.14,0-.17,0-.07,0-.15-.08-.07,0-.18-.1s0,0-.1-.16c.1.27,0-.1,0-.22s0-.17,0,0a2.38,2.38,0,0,1,.05-.26s.18-.49.1-.29c.11-.29.17-.12-.05,0a.65.65,0,0,1-.67-.06,1.3,1.3,0,0,0,1.77,0,1.26,1.26,0,0,0,0-1.77Z" transform="translate(-0.44 -0.68)"/><path class="cls-1" d="M28.23,82.39A2,2,0,0,0,25,83a3.61,3.61,0,0,0-.16,3.36c1.56,2.59,5.3,1.31,5.56-1.5a3,3,0,0,0-4.46-3,2.63,2.63,0,0,0-1.45,2.37,2.56,2.56,0,0,0,2.26,2.48,2.83,2.83,0,0,0,2.77-1.8c.56-1.56-.68-2.67-2-3.16a1.26,1.26,0,0,0-1.41.58,4.59,4.59,0,0,0-.67,2.45A1.27,1.27,0,0,0,27,86a2.81,2.81,0,0,0,1.74-.73,2.38,2.38,0,0,0,.5-2,1.28,1.28,0,0,0-1.89-1.08,1.65,1.65,0,0,0-.73.63c-.06.09-.47.75-.18.39a1.3,1.3,0,0,0,0,1.77,1.27,1.27,0,0,0,1.77,0,3.22,3.22,0,0,0,.38-.53l.13-.3a1.86,1.86,0,0,1-.1.2l-1.88-1.08a2.45,2.45,0,0,0,0,.61c-.1-.16.3-.46.31-.49s0,0-.12,0-.42.08-.63.11l1.58,1.21a2,2,0,0,1,.33-1.19l-1.41.57s.44.21.3.13c.12.07.07.12,0,0s0-.2,0-.11c.06-.15.06-.17,0,0,.1-.12.1-.13,0,0s-.1.1,0,0l-.18.1c-.21.08.16,0-.08,0s0,0,.08,0c-.14,0-.13,0,0,0s.12.1,0,0c.09.09.08.08,0,0s-.08-.14,0,0c0-.14,0-.13,0,0A.6.6,0,0,1,27,84c-.07.49.07-.26-.05.2a.86.86,0,0,1,.1-.16c-.1.13-.11.15,0,.05s.1-.09,0,0l.17-.1c.17-.06-.17,0,.16,0s-.19,0,.16,0-.19-.1.12,0-.07-.09.12.06c-.3-.24.23.25,0,0a.81.81,0,0,1,.19.69.78.78,0,0,1-.18.35c-.09.11-.06.11-.27.2.23-.1-.39.09-.1,0-.15,0-.16,0,0,0-.14,0-.16,0-.06,0-.15-.08-.07,0-.18-.1s0,0-.1-.16c.1.26,0-.11,0-.22s0-.17,0-.05a2.21,2.21,0,0,1,0-.25s.18-.49.09-.3c.12-.28.18-.11,0,0a.65.65,0,0,1-.67-.07,1.29,1.29,0,0,0,1.77,0,1.26,1.26,0,0,0,0-1.77Z" transform="translate(-0.44 -0.68)"/><path class="cls-1" d="M14.25,69.46a2,2,0,0,0-3.21.62,3.61,3.61,0,0,0-.16,3.36c1.56,2.59,5.3,1.31,5.56-1.5a3,3,0,0,0-4.46-3,2.62,2.62,0,0,0-1.45,2.36,2.56,2.56,0,0,0,2.26,2.49A2.83,2.83,0,0,0,15.56,72c.56-1.57-.68-2.68-2-3.16a1.26,1.26,0,0,0-1.41.57,4.59,4.59,0,0,0-.67,2.45A1.28,1.28,0,0,0,13,73a2.93,2.93,0,0,0,1.74-.73,2.38,2.38,0,0,0,.5-2,1.27,1.27,0,0,0-1.88-1.08,1.6,1.6,0,0,0-.74.62c-.06.1-.47.76-.18.4a1.28,1.28,0,0,0,0,1.76,1.26,1.26,0,0,0,1.77,0,2.85,2.85,0,0,0,.38-.53l.13-.3a1.24,1.24,0,0,1-.1.2l-1.88-1.07a2.35,2.35,0,0,0,0,.6c-.1-.16.3-.45.31-.48s0,0-.12,0-.42.09-.63.12L14,71.83a2,2,0,0,1,.33-1.18l-1.41.57s.44.21.3.13c.12.07.07.12,0,0s0-.21,0-.12c.06-.15.06-.16,0,0,.1-.12.1-.12,0,0s-.1.09,0,0l-.18.11c-.21.08.17,0-.08,0s0,0,.08,0c-.14,0-.13,0,0,0s.12.09,0,0c.09.1.08.09,0,0s-.08-.14,0,0c0-.15,0-.13,0,0a.54.54,0,0,1,0-.18c-.07.49.07-.26,0,.19a1.3,1.3,0,0,1,.1-.15c-.1.13-.11.14,0,0s.1-.08,0,0l.17-.1c.18-.06-.17,0,.16,0s-.19,0,.16,0-.19-.09.12,0-.07-.09.12.06c-.3-.25.23.25,0,0a.8.8,0,0,1,.19.68.77.77,0,0,1-.18.36c-.09.11-.06.11-.27.2.23-.1-.39.09-.1,0-.15,0-.16,0,0,0-.14,0-.16,0-.06,0-.15-.08-.07,0-.18-.11s0,0-.1-.16c.1.27,0-.1,0-.22s0-.16,0,0a2.38,2.38,0,0,1,0-.26s.18-.49.09-.29c.12-.28.18-.11,0,0a.65.65,0,0,1-.67-.07,1.3,1.3,0,0,0,1.77,0,1.26,1.26,0,0,0,0-1.77Z" transform="translate(-0.44 -0.68)"/><path class="cls-1" d="M13.11,48.73a2,2,0,0,0-3.21.61,3.66,3.66,0,0,0-.16,3.37c1.56,2.59,5.31,1.3,5.57-1.51a3,3,0,0,0-4.46-3,2.66,2.66,0,0,0-1.46,2.37A2.56,2.56,0,0,0,11.66,53a2.82,2.82,0,0,0,2.77-1.8c.56-1.56-.69-2.67-2-3.16a1.28,1.28,0,0,0-1.42.58,4.67,4.67,0,0,0-.66,2.45,1.26,1.26,0,0,0,1.58,1.2,2.86,2.86,0,0,0,1.74-.72,2.33,2.33,0,0,0,.5-2,1.27,1.27,0,0,0-1.88-1.08,1.74,1.74,0,0,0-.74.63c-.06.09-.47.76-.17.39a1.28,1.28,0,0,0,0,1.77,1.25,1.25,0,0,0,1.76,0,4,4,0,0,0,.39-.53l.12-.3a.75.75,0,0,1-.1.2l-1.88-1.08a3,3,0,0,0,0,.61c-.1-.16.29-.46.3-.48s0,0-.12,0-.41.08-.62.11l1.58,1.21a2,2,0,0,1,.32-1.19l-1.41.57s.44.21.31.13c.12.08.07.12,0,0s0-.21,0-.12c.07-.15.07-.17,0,0,.1-.12.1-.13,0,0s-.09.09,0,0l-.17.11c-.22.08.16,0-.09,0s0,0,.08,0h0c.11.1.11.1,0,0,.08.1.08.08,0,0v0c0-.14,0-.13,0,0v-.19c-.06.49.08-.26,0,.2l.09-.16c-.1.13-.1.15,0,.05s.09-.09,0,0l.16-.1c.18-.06-.17,0,.16,0s-.18,0,.17,0-.19-.1.11,0-.06-.1.12,0c-.29-.24.24.25,0,0a.79.79,0,0,1,.18.69.76.76,0,0,1-.18.36.48.48,0,0,1-.26.2c.23-.11-.4.08-.1,0-.15,0-.17,0,0,0-.14,0-.16,0-.06,0-.16-.08-.08,0-.19-.1s0,0-.09-.16c.09.26,0-.1,0-.22s0-.17,0-.05L12,50.9s.17-.49.09-.29c.12-.29.17-.12-.05,0a.61.61,0,0,1-.66-.07,1.27,1.27,0,0,0,1.76,0,1.25,1.25,0,0,0,0-1.76Z" transform="translate(-0.44 -0.68)"/><path class="cls-1" d="M22.89,28.3a2,2,0,0,0-3.21.62,3.64,3.64,0,0,0-.16,3.36c1.56,2.59,5.31,1.31,5.57-1.5a3,3,0,0,0-4.47-3,2.65,2.65,0,0,0-1.45,2.36,2.57,2.57,0,0,0,2.27,2.49,2.83,2.83,0,0,0,2.77-1.8c.56-1.57-.69-2.68-2-3.16a1.28,1.28,0,0,0-1.42.57,4.67,4.67,0,0,0-.66,2.45,1.27,1.27,0,0,0,1.58,1.21,2.93,2.93,0,0,0,1.74-.73,2.33,2.33,0,0,0,.5-2A1.26,1.26,0,0,0,22,28.11a1.65,1.65,0,0,0-.74.62c-.06.1-.47.76-.17.4a1.26,1.26,0,0,0,0,1.76,1.25,1.25,0,0,0,1.76,0,3.45,3.45,0,0,0,.39-.53l.12-.3a.75.75,0,0,1-.1.2l-1.88-1.08a2.93,2.93,0,0,0,0,.61c-.1-.16.29-.46.3-.48s0,0-.12,0l-.62.12,1.58,1.2a2.05,2.05,0,0,1,.32-1.19l-1.41.58s.44.21.31.12c.12.08.07.13,0,0s0-.21,0-.12c.07-.15.07-.16,0,0,.1-.12.1-.13,0,0s-.09.09,0,0l-.17.11c-.22.08.16,0-.09,0s0,0,.08,0c-.13,0-.12,0,0,0s.11.09,0,0c.08.1.08.09,0,0s-.07-.14,0,0c0-.15,0-.14,0,0v-.19c-.06.5.08-.25,0,.2l.09-.15c-.1.13-.1.14,0,0s.09-.08,0,0l.16-.1c.18-.06-.17,0,.16-.05s-.18-.05.17,0-.19-.09.11,0-.06-.09.12.05c-.29-.24.24.26,0,0a.76.76,0,0,1,.18.68.72.72,0,0,1-.18.36c-.09.11-.06.11-.26.2.23-.1-.4.09-.1,0-.15,0-.17,0,0,0-.14-.05-.16,0-.06,0-.16-.08-.08,0-.19-.11s0,0-.09-.16c.09.27,0-.1,0-.22s0-.16,0,0l.06-.26s.17-.49.09-.29c.12-.28.17-.11-.05,0a.65.65,0,0,1-.66-.07,1.28,1.28,0,0,0,1.76,0,1.26,1.26,0,0,0,0-1.77Z" transform="translate(-0.44 -0.68)"/><path class="cls-1" d="M35.58,12a2,2,0,0,0-3.21.62A3.64,3.64,0,0,0,32.21,16c1.56,2.59,5.31,1.31,5.57-1.5a3,3,0,0,0-4.46-3,2.65,2.65,0,0,0-1.46,2.37,2.57,2.57,0,0,0,2.27,2.48,2.83,2.83,0,0,0,2.77-1.8c.56-1.56-.69-2.67-2-3.16a1.26,1.26,0,0,0-1.41.58,4.59,4.59,0,0,0-.67,2.45,1.26,1.26,0,0,0,1.58,1.2,2.87,2.87,0,0,0,1.74-.73,2.31,2.31,0,0,0,.5-2,1.27,1.27,0,0,0-1.88-1.08,1.72,1.72,0,0,0-.74.62c-.06.1-.47.76-.17.4a1.28,1.28,0,0,0,0,1.77,1.26,1.26,0,0,0,1.76,0,3.54,3.54,0,0,0,.39-.54l.12-.29a.93.93,0,0,1-.1.2l-1.88-1.08a3,3,0,0,0,0,.61c-.1-.16.29-.46.3-.49s0,0-.12.05-.41.08-.62.11l1.58,1.21a2,2,0,0,1,.32-1.19l-1.41.57s.44.21.31.13c.12.07.07.12,0,0s0-.2,0-.11c.07-.16.07-.17,0,0,.1-.12.1-.12,0,0s-.1.1,0,0l-.17.11c-.22.08.16,0-.08,0s0,0,.07,0c-.13,0-.12,0,0,0s.11.1,0,0c.08.1.08.09,0,0s-.07-.14,0,0c0-.14,0-.13,0,0v-.19c-.06.49.08-.26,0,.2l.09-.16c-.1.13-.1.15,0,0s.09-.08,0,0l.16-.1c.18-.06-.17,0,.16-.05s-.18,0,.17,0-.19-.1.11,0-.06-.09.12.06c-.29-.25.24.25,0,0a.78.78,0,0,1,.18.69.69.69,0,0,1-.18.35c-.09.11-.06.11-.26.2.23-.1-.4.09-.1,0-.15,0-.17,0,0,0-.14,0-.16,0-.06,0-.16-.08-.08,0-.19-.1s0,0-.09-.16c.09.26,0-.11,0-.22s0-.17,0-.05l.06-.25s.17-.49.09-.3c.12-.28.17-.11-.05,0a.63.63,0,0,1-.66-.07,1.28,1.28,0,0,0,1.76,0,1.26,1.26,0,0,0,0-1.77Z" transform="translate(-0.44 -0.68)"/></svg>